<?xml version="1.0" encoding="iso-8859-1"?>
<!-- Uploaded to: SVG Repo, www.svgrepo.com, Generator: SVG Repo Mixer Tools -->
<svg height="800px" width="800px" version="1.1" id="Layer_1" xmlns="http://www.w3.org/2000/svg" xmlns:xlink="http://www.w3.org/1999/xlink" 
	 viewBox="0 0 512 512" xml:space="preserve">
<g>
	<path style="fill:#717272;" d="M418.133,418.149c0,9.387-7.68,17.067-17.067,17.067S384,427.535,384,418.149H418.133z"/>
	<path style="fill:#717272;" d="M324.267,418.149c0,9.387-7.68,17.067-17.067,17.067s-17.067-7.68-17.067-17.067H324.267z"/>
	<path style="fill:#717272;" d="M136.533,418.149c0,9.387-7.68,17.067-17.067,17.067s-17.067-7.68-17.067-17.067H136.533z"/>
	<path style="fill:#717272;" d="M230.4,418.149c0,9.387-7.68,17.067-17.067,17.067s-17.067-7.68-17.067-17.067H230.4z"/>
</g>
<path d="M503.467,452.282h-102.4H307.2h-93.867h-93.867H8.533c-4.719,0-8.533,3.823-8.533,8.533c0,4.71,3.814,8.533,8.533,8.533
	h494.933c4.719,0,8.533-3.823,8.533-8.533C512,456.105,508.186,452.282,503.467,452.282z"/>
<path d="M477.867,366.949h-20.992l-5.717-8.533h1.109c14.592,0,25.6-18.347,25.6-42.667c0-24.32-11.008-42.667-25.6-42.667H409.6
	v-17.067c0-11.179-7.253-20.651-17.323-24.149c0.512-1.536,1.024-3.157,1.28-4.949c1.28-9.216-1.707-18.176-7.851-24.661
	c2.56-8.704,2.304-19.797-3.755-28.587c-2.987-4.267-9.216-10.496-21.248-11.776c1.365-13.739-4.011-27.051-15.189-36.523
	c-13.739-11.605-32.427-14.933-49.323-9.472c-1.536-3.755-3.84-6.912-6.912-9.301c-3.669-2.816-8.107-4.437-13.483-4.949
	c2.048-13.227-0.853-26.283-8.363-37.035c-10.155-14.421-26.709-22.528-45.568-21.931c-20.224,0-40.363,10.923-50.176,27.307
	c-6.997,11.691-8.021,25.088-3.072,38.229c-20.395,16.981-22.528,39.851-14.933,55.979c7.68,16.469,26.965,29.696,53.845,25.088
	c3.499,6.997,10.155,13.483,18.688,17.664c11.776,5.888,25.088,6.912,37.632,2.987c1.28,8.021,5.291,13.824,9.216,17.664
	c15.189,15.019,43.776,16.811,65.792,12.203c5.632,4.352,13.141,7.253,20.907,8.363c-0.853,2.475-1.365,5.12-1.365,7.851v17.067
	h-44.544c-4.608-10.069-17.152-17.067-32.256-17.067s-27.648,6.997-32.256,17.067h-61.611v-17.067c0-4.693-3.84-8.533-8.533-8.533
	H59.733c-4.693,0-8.533,3.84-8.533,8.533v25.6c0,3.925,2.645,7.339,6.485,8.277l27.648,6.912v70.144H42.667
	c-4.693,0-8.533,3.84-8.533,8.533v34.133c0,4.693,3.84,8.533,8.533,8.533h42.667c0,18.859,15.275,34.133,34.133,34.133
	s34.133-15.275,34.133-34.133h25.6c0,18.859,15.275,34.133,34.133,34.133s34.133-15.275,34.133-34.133h25.6
	c0,18.859,15.275,34.133,34.133,34.133c18.859,0,34.133-15.275,34.133-34.133h25.6c0,18.859,15.275,34.133,34.133,34.133
	c18.859,0,34.133-15.275,34.133-34.133h42.667c4.693,0,8.533-3.84,8.533-8.533v-34.133
	C486.4,370.789,482.56,366.949,477.867,366.949z M347.733,224.698c-1.707-1.792-4.011-2.816-6.4-2.816
	c-0.683,0-1.451,0.085-2.219,0.256c-21.248,5.632-44.544,2.816-54.016-6.656c-4.352-4.352-5.632-9.899-3.755-17.067
	c0.853-3.413-0.427-6.997-3.328-9.045c-2.816-2.048-6.656-2.133-9.557-0.256c-15.701,10.155-29.44,5.205-34.645,2.645
	c-7.509-3.84-11.691-9.472-11.947-13.141c-0.171-2.56-1.536-4.949-3.669-6.4s-4.779-1.877-7.253-1.195
	c-22.869,6.656-36.864-3.413-41.813-14.08c-4.779-10.155-3.755-26.453,14.848-38.912c3.584-2.475,4.779-7.253,2.731-11.093
	c-5.376-10.069-5.547-19.627-0.341-28.245c6.571-11.008,21.504-18.944,35.669-18.944c13.056-0.341,24.661,5.035,31.403,14.677
	c6.571,9.387,7.765,21.589,3.157,33.451c-1.109,2.901-0.597,6.144,1.365,8.533c1.963,2.389,5.12,3.499,8.192,2.901
	c6.059-1.109,10.496-0.853,12.629,0.768c2.048,1.621,2.645,5.461,2.816,8.448c0.171,2.901,1.877,5.632,4.523,6.997
	c2.645,1.451,5.803,1.365,8.363-0.171c14.763-8.704,31.061-4.523,40.021,3.072c4.267,3.584,13.397,13.568,7.424,29.184
	c-1.109,2.816-0.597,5.973,1.28,8.363c1.877,2.389,4.864,3.584,7.851,3.157c5.717-0.853,13.397-0.683,16.896,4.267
	c3.243,4.779,2.56,12.715,0,17.323c-2.133,3.925-0.853,8.875,2.901,11.264c5.035,3.328,6.315,8.704,5.803,12.715
	c-0.427,3.072-1.963,5.547-3.669,6.059C363.691,233.573,352.256,229.818,347.733,224.698z M187.733,290.149H256
	c4.693,0,8.533-3.84,8.533-8.533c0-3.499,6.656-8.533,17.067-8.533c10.411,0,17.067,5.035,17.067,8.533
	c0,4.693,3.84,8.533,8.533,8.533h59.733c4.693,0,8.533-3.84,8.533-8.533v-25.6c0-4.693,3.84-8.533,8.533-8.533
	s8.533,3.84,8.533,8.533v25.6c0,4.693,3.84,8.533,8.533,8.533h51.2c2.133,0,8.533,9.045,8.533,25.6s-6.4,25.6-8.533,25.6H435.2
	c-3.157,0-6.059,1.707-7.509,4.523c-1.536,2.731-1.365,6.144,0.427,8.704l8.192,12.373H187.733V290.149z M119.467,435.215
	c-9.387,0-17.067-7.68-17.067-17.067h34.133C136.533,427.535,128.853,435.215,119.467,435.215z M213.333,435.215
	c-9.387,0-17.067-7.68-17.067-17.067H230.4C230.4,427.535,222.72,435.215,213.333,435.215z M307.2,435.215
	c-9.387,0-17.067-7.68-17.067-17.067h34.133C324.267,427.535,316.587,435.215,307.2,435.215z M401.067,435.215
	c-9.387,0-17.067-7.68-17.067-17.067h34.133C418.133,427.535,410.453,435.215,401.067,435.215z M469.333,401.082H51.2v-17.067
	h42.667c4.693,0,8.533-3.84,8.533-8.533v-85.333c0-3.925-2.645-7.339-6.485-8.277l-27.648-6.912v-10.411h102.4v110.933
	c0,4.693,3.84,8.533,8.533,8.533h290.133V401.082z"/>
<path style="fill:#004D40;" d="M469.333,384.015v17.067H51.2v-17.067h42.667c4.693,0,8.533-3.84,8.533-8.533v-85.333
	c0-3.925-2.645-7.339-6.485-8.277l-27.648-6.912v-10.411h102.4v110.933c0,4.693,3.84,8.533,8.533,8.533H469.333z"/>
<path style="fill:#00796B;" d="M460.8,315.749c0,16.555-6.4,25.6-8.533,25.6H435.2c-3.157,0-6.059,1.707-7.509,4.523
	c-1.536,2.731-1.365,6.144,0.427,8.704l8.192,12.373H187.733v-76.8H256c4.693,0,8.533-3.84,8.533-8.533
	c0-3.499,6.656-8.533,17.067-8.533c10.411,0,17.067,5.035,17.067,8.533c0,4.693,3.84,8.533,8.533,8.533h59.733
	c4.693,0,8.533-3.84,8.533-8.533v-25.6c0-4.693,3.84-8.533,8.533-8.533s8.533,3.84,8.533,8.533v25.6c0,4.693,3.84,8.533,8.533,8.533
	h51.2C454.4,290.149,460.8,299.194,460.8,315.749z"/>
<g>
	<path style="fill:#BDBDBD;" d="M194.202,69.912c1.34-1.092,2.756-2.125,4.258-3.063C196.966,67.796,195.55,68.82,194.202,69.912z"
		/>
	<path style="fill:#BDBDBD;" d="M198.707,66.703c1.655-1.024,3.388-1.954,5.188-2.782C202.095,64.741,200.363,65.671,198.707,66.703
		z"/>
	<path style="fill:#BDBDBD;" d="M190.293,73.598c1.024-1.109,2.099-2.185,3.277-3.183C192.393,71.422,191.309,72.48,190.293,73.598z
		"/>
	<path style="fill:#BDBDBD;" d="M186.368,78.693c0.896-1.493,1.954-2.918,3.14-4.284C188.331,75.774,187.264,77.191,186.368,78.693z
		"/>
	<path style="fill:#BDBDBD;" d="M199.202,98.413c2.048,3.84,0.853,8.619-2.731,11.093c-18.603,12.459-19.627,28.757-14.848,38.912
		c4.949,10.667,18.944,20.736,41.813,14.08c2.475-0.683,5.12-0.256,7.253,1.195c2.133,1.451,3.499,3.84,3.669,6.4
		c0.256,3.669,4.437,9.301,11.947,13.141c5.205,2.56,18.944,7.509,34.645-2.645c2.901-1.877,6.741-1.792,9.557,0.256
		c2.901,2.048,4.181,5.632,3.328,9.045c-1.877,7.168-0.597,12.715,3.755,17.067c9.472,9.472,32.768,12.288,54.016,6.656
		c0.768-0.171,1.536-0.256,2.219-0.256c2.389,0,4.693,1.024,6.4,2.816c3.149,3.567,9.651,6.409,16.444,6.895
		c0.026-3.755-1.417-8.183-5.811-11.093c-3.755-2.389-5.035-7.339-2.901-11.264c2.56-4.608,3.243-12.544,0-17.323
		c-3.499-4.949-11.179-5.12-16.896-4.267c-2.987,0.427-5.973-0.768-7.851-3.157c-1.877-2.389-2.389-5.547-1.28-8.363
		c5.973-15.616-3.157-25.6-7.424-29.184c-8.96-7.595-25.259-11.776-40.021-3.072c-2.56,1.536-5.717,1.621-8.363,0.171
		c-2.645-1.365-4.352-4.096-4.523-6.997c-0.171-2.987-0.768-6.827-2.816-8.448c-2.133-1.621-6.571-1.877-12.629-0.768
		c-3.072,0.597-6.229-0.512-8.192-2.901c-1.963-2.389-2.475-5.632-1.365-8.533c4.608-11.861,3.413-24.064-3.157-33.451
		c-6.741-9.643-18.347-15.019-31.403-14.677c-6.161,0-12.433,1.57-18.133,4.173c-1.954,1.946-3.703,4.011-5.043,6.255
		C193.655,78.787,193.826,88.344,199.202,98.413z"/>
</g>
<g>
	<path style="fill:#90A4AE;" d="M203.904,63.922h-0.009H203.904z"/>
	<path style="fill:#90A4AE;" d="M189.508,74.4c0.239-0.282,0.529-0.538,0.785-0.811C190.037,73.871,189.747,74.119,189.508,74.4z"/>
	<path style="fill:#90A4AE;" d="M198.46,66.848c0.077-0.051,0.162-0.102,0.247-0.154C198.63,66.755,198.545,66.797,198.46,66.848z"
		/>
	<path style="fill:#90A4AE;" d="M376.661,224.698c0.068-0.503,0.009-1.084,0.009-1.621l0,0
		C376.67,223.614,376.73,224.186,376.661,224.698z"/>
	<path style="fill:#90A4AE;" d="M193.57,70.415c0.205-0.171,0.427-0.333,0.631-0.503C193.997,70.083,193.775,70.236,193.57,70.415z"
		/>
	<path style="fill:#90A4AE;" d="M360.226,216.173c-1.707-1.792-4.011-2.816-6.4-2.816c-0.683,0-1.451,0.085-2.219,0.256
		c-21.248,5.632-44.544,2.816-54.016-6.656c-4.352-4.352-5.632-9.899-3.755-17.067c0.853-3.413-0.427-6.997-3.328-9.045
		c-2.816-2.048-6.656-2.133-9.557-0.256c-15.701,10.155-29.44,5.205-34.645,2.645c-7.509-3.84-11.691-9.472-11.947-13.141
		c-0.171-2.56-1.536-4.949-3.669-6.4s-4.779-1.877-7.253-1.195c-22.869,6.656-36.864-3.413-41.813-14.08
		c-4.779-10.155-3.755-26.453,14.848-38.912c3.584-2.475,4.779-7.253,2.731-11.093c-5.376-10.069-5.547-19.627-0.341-28.245
		c1.34-2.236,3.089-4.309,5.043-6.255l0,0c-1.801,0.819-3.533,1.758-5.188,2.782c-0.085,0.051-0.162,0.102-0.247,0.154
		c-1.502,0.939-2.91,1.971-4.258,3.063c-0.205,0.171-0.427,0.324-0.631,0.503c-1.195,0.998-2.261,2.074-3.285,3.183
		c-0.256,0.273-0.538,0.529-0.785,0.811c-1.178,1.365-2.244,2.79-3.14,4.284c-5.205,8.619-5.035,18.176,0.341,28.245
		c2.048,3.84,0.853,8.619-2.731,11.093c-18.603,12.459-19.627,28.757-14.848,38.912c4.949,10.667,18.944,20.736,41.813,14.08
		c2.475-0.683,5.12-0.256,7.253,1.195s3.499,3.84,3.669,6.4c0.256,3.669,4.437,9.301,11.947,13.141
		c5.205,2.56,18.944,7.509,34.645-2.645c2.901-1.877,6.741-1.792,9.557,0.256c2.901,2.048,4.181,5.632,3.328,9.045
		c-1.877,7.168-0.597,12.715,3.755,17.067c9.472,9.472,32.768,12.288,54.016,6.656c0.768-0.171,1.536-0.256,2.219-0.256
		c2.389,0,4.693,1.024,6.4,2.816c4.523,5.12,15.957,8.875,25.259,6.059c1.707-0.512,3.243-2.987,3.669-6.059
		c0.068-0.503,0.009-1.084,0.009-1.621C369.877,222.582,363.375,219.74,360.226,216.173z"/>
</g>
<g>
	<path style="fill:#555656;" d="M412.092,418.149c-1.715,7.603-8.525,13.338-16.623,13.338c-2.287,0-4.471-0.469-6.468-1.297
		c3.098,3.106,7.364,5.026,12.066,5.026c9.387,0,17.067-7.68,17.067-17.067H412.092z"/>
	<path style="fill:#555656;" d="M318.225,418.149c-1.715,7.603-8.525,13.338-16.623,13.338c-2.287,0-4.471-0.469-6.468-1.297
		c3.098,3.106,7.364,5.026,12.066,5.026c9.387,0,17.067-7.68,17.067-17.067H318.225z"/>
	<path style="fill:#555656;" d="M130.492,418.149c-1.715,7.603-8.525,13.338-16.623,13.338c-2.287,0-4.471-0.469-6.468-1.297
		c3.098,3.106,7.364,5.026,12.066,5.026c9.387,0,17.067-7.68,17.067-17.067H130.492z"/>
	<path style="fill:#555656;" d="M224.358,418.149c-1.715,7.603-8.525,13.338-16.623,13.338c-2.287,0-4.471-0.469-6.468-1.297
		c3.098,3.106,7.364,5.026,12.066,5.026c9.387,0,17.067-7.68,17.067-17.067H224.358z"/>
</g>
</svg>