<?xml version="1.0" encoding="iso-8859-1"?>
<!-- Uploaded to: SVG Repo, www.svgrepo.com, Generator: SVG Repo Mixer Tools -->
<svg version="1.1" id="Layer_1" xmlns="http://www.w3.org/2000/svg" xmlns:xlink="http://www.w3.org/1999/xlink" 
	 viewBox="0 0 508 508" xml:space="preserve">
<circle style="fill:#FFD05B;" cx="254" cy="254" r="254"/>
<g>
	<path style="fill:#324A5E;" d="M401.2,47.1c-7.6-5.4-15.5-10.4-23.7-15h-247c-8.2,4.6-16.1,9.6-23.7,15v29.5h294.5V47.1H401.2z"/>
	<rect x="106.8" y="111.2" style="fill:#324A5E;" width="294.5" height="44.5"/>
	<rect x="106.8" y="190.4" style="fill:#324A5E;" width="294.5" height="44.5"/>
	<rect x="106.8" y="269.6" style="fill:#324A5E;" width="294.5" height="44.5"/>
	<rect x="106.8" y="348.7" style="fill:#324A5E;" width="294.5" height="44.5"/>
	<path style="fill:#324A5E;" d="M106.8,460.9c5.7,4.1,11.5,7.9,17.5,11.5h259.4c6-3.6,11.9-7.4,17.5-11.5v-33H106.8V460.9z"/>
</g>
<path style="fill:#E6E9EE;" d="M335.1,494.7c9.7-3.3,19.1-7,28.2-11.4V24.7c-9.1-4.4-18.5-8.1-28.2-11.4V494.7z"/>
<g>
	<circle style="fill:#2B3B4E;" cx="371.6" cy="43.3" r="4"/>
	<circle style="fill:#2B3B4E;" cx="371.6" cy="65.4" r="4"/>
	<circle style="fill:#2B3B4E;" cx="326.9" cy="43.3" r="4"/>
	<circle style="fill:#2B3B4E;" cx="326.9" cy="65.4" r="4"/>
	<circle style="fill:#2B3B4E;" cx="371.6" cy="122.4" r="4"/>
	<circle style="fill:#2B3B4E;" cx="371.6" cy="144.5" r="4"/>
	<circle style="fill:#2B3B4E;" cx="326.9" cy="122.4" r="4"/>
	<circle style="fill:#2B3B4E;" cx="326.9" cy="144.5" r="4"/>
	<circle style="fill:#2B3B4E;" cx="371.6" cy="201.6" r="4"/>
	<circle style="fill:#2B3B4E;" cx="371.6" cy="223.7" r="4"/>
	<circle style="fill:#2B3B4E;" cx="326.9" cy="201.6" r="4"/>
	<circle style="fill:#2B3B4E;" cx="326.9" cy="223.7" r="4"/>
	<circle style="fill:#2B3B4E;" cx="371.6" cy="280.8" r="4"/>
	<circle style="fill:#2B3B4E;" cx="371.6" cy="302.9" r="4"/>
	<circle style="fill:#2B3B4E;" cx="326.9" cy="280.8" r="4"/>
	<circle style="fill:#2B3B4E;" cx="326.9" cy="302.9" r="4"/>
	<circle style="fill:#2B3B4E;" cx="371.6" cy="359.9" r="4"/>
	<circle style="fill:#2B3B4E;" cx="371.6" cy="382" r="4"/>
	<circle style="fill:#2B3B4E;" cx="326.9" cy="359.9" r="4"/>
	<circle style="fill:#2B3B4E;" cx="326.9" cy="382" r="4"/>
	<circle style="fill:#2B3B4E;" cx="371.6" cy="439.1" r="4"/>
	<circle style="fill:#2B3B4E;" cx="371.6" cy="461.2" r="4"/>
	<circle style="fill:#2B3B4E;" cx="326.9" cy="439.1" r="4"/>
	<circle style="fill:#2B3B4E;" cx="326.9" cy="461.2" r="4"/>
</g>
<path style="fill:#E6E9EE;" d="M144.6,483.3c9.1,4.4,18.5,8.1,28.2,11.4V13.3c-9.7,3.3-19.1,7-28.2,11.4V483.3z"/>
<g>
	<circle style="fill:#2B3B4E;" cx="181.1" cy="43.3" r="4"/>
	<circle style="fill:#2B3B4E;" cx="181.1" cy="65.4" r="4"/>
	<circle style="fill:#2B3B4E;" cx="136.4" cy="43.3" r="4"/>
	<circle style="fill:#2B3B4E;" cx="136.4" cy="65.4" r="4"/>
	<circle style="fill:#2B3B4E;" cx="181.1" cy="122.4" r="4"/>
	<circle style="fill:#2B3B4E;" cx="181.1" cy="144.5" r="4"/>
	<circle style="fill:#2B3B4E;" cx="136.4" cy="122.4" r="4"/>
	<circle style="fill:#2B3B4E;" cx="136.4" cy="144.5" r="4"/>
	<circle style="fill:#2B3B4E;" cx="181.1" cy="201.6" r="4"/>
	<circle style="fill:#2B3B4E;" cx="181.1" cy="223.7" r="4"/>
	<circle style="fill:#2B3B4E;" cx="136.4" cy="201.6" r="4"/>
	<circle style="fill:#2B3B4E;" cx="136.4" cy="223.7" r="4"/>
	<circle style="fill:#2B3B4E;" cx="181.1" cy="280.8" r="4"/>
	<circle style="fill:#2B3B4E;" cx="181.1" cy="302.9" r="4"/>
	<circle style="fill:#2B3B4E;" cx="136.4" cy="280.8" r="4"/>
	<circle style="fill:#2B3B4E;" cx="136.4" cy="302.9" r="4"/>
	<circle style="fill:#2B3B4E;" cx="181.1" cy="359.9" r="4"/>
	<circle style="fill:#2B3B4E;" cx="181.1" cy="382" r="4"/>
	<circle style="fill:#2B3B4E;" cx="136.4" cy="359.9" r="4"/>
	<circle style="fill:#2B3B4E;" cx="136.4" cy="382" r="4"/>
	<circle style="fill:#2B3B4E;" cx="181.1" cy="439.1" r="4"/>
	<circle style="fill:#2B3B4E;" cx="181.1" cy="461.2" r="4"/>
	<circle style="fill:#2B3B4E;" cx="136.4" cy="439.1" r="4"/>
	<circle style="fill:#2B3B4E;" cx="136.4" cy="461.2" r="4"/>
</g>
</svg>